<?xml version="1.0" standalone="yes"?>

<svg version="1.1" viewBox="0.0 0.0 200.0 200.0" fill="none" stroke="none" stroke-linecap="square" stroke-miterlimit="10" xmlns="http://www.w3.org/2000/svg" xmlns:xlink="http://www.w3.org/1999/xlink"><clipPath id="p.0"><path d="m0 0l200.0 0l0 200.0l-200.0 0l0 -200.0z" clip-rule="nonzero"></path></clipPath><g clip-path="url(#p.0)"><path fill="#000000" fill-opacity="0.0" d="m0 0l200.0 0l0 200.0l-200.0 0z" fill-rule="nonzero"></path><path fill="#ff0000" d="m21.027853 98.03799l0 0c0 -46.644142 36.58574 -84.456696 81.71653 -84.456696l0 0c21.672577 0 42.45749 8.898089 57.78232 24.73679c15.324829 15.838703 23.93422 37.320595 23.93422 59.719902l0 0c0 46.644142 -36.58574 84.45669 -81.71654 84.45669l0 0c-45.130795 0 -81.71653 -37.812546 -81.71653 -84.45669z" fill-rule="nonzero"></path><path stroke="#000000" stroke-width="4.0" stroke-linejoin="round" stroke-linecap="butt" d="m21.027853 98.03799l0 0c0 -46.644142 36.58574 -84.456696 81.71653 -84.456696l0 0c21.672577 0 42.45749 8.898089 57.78232 24.73679c15.324829 15.838703 23.93422 37.320595 23.93422 59.719902l0 0c0 46.644142 -36.58574 84.45669 -81.71654 84.45669l0 0c-45.130795 0 -81.71653 -37.812546 -81.71653 -84.45669z" fill-rule="nonzero"></path><path fill="#000000" d="m57.34589 80.481155l0 0c0 -5.905533 4.6957207 -10.692909 10.488186 -10.692909l0 0c2.781639 0 5.449356 1.1265717 7.4162674 3.1318817c1.966919 2.00531 3.0719223 4.72509 3.0719223 7.5610275l0 0c0 5.905533 -4.6957245 10.692917 -10.48819 10.692917l0 0c-5.792465 0 -10.488186 -4.787384 -10.488186 -10.692917z" fill-rule="nonzero"></path><path stroke="#000000" stroke-width="4.0" stroke-linejoin="round" stroke-linecap="butt" d="m57.34589 80.481155l0 0c0 -5.905533 4.6957207 -10.692909 10.488186 -10.692909l0 0c2.781639 0 5.449356 1.1265717 7.4162674 3.1318817c1.966919 2.00531 3.0719223 4.72509 3.0719223 7.5610275l0 0c0 5.905533 -4.6957245 10.692917 -10.48819 10.692917l0 0c-5.792465 0 -10.488186 -4.787384 -10.488186 -10.692917z" fill-rule="nonzero"></path><path fill="#000000" d="m121.74946 80.481155l0 0c0 -5.905533 4.6957245 -10.692909 10.488197 -10.692909l0 0c2.7816315 0 5.449341 1.1265717 7.41626 3.1318817c1.966919 2.00531 3.07193 4.72509 3.07193 7.5610275l0 0c0 5.905533 -4.6957245 10.692917 -10.48819 10.692917l0 0c-5.792473 0 -10.488197 -4.787384 -10.488197 -10.692917z" fill-rule="nonzero"></path><path stroke="#000000" stroke-width="4.0" stroke-linejoin="round" stroke-linecap="butt" d="m121.74946 80.481155l0 0c0 -5.905533 4.6957245 -10.692909 10.488197 -10.692909l0 0c2.7816315 0 5.449341 1.1265717 7.41626 3.1318817c1.966919 2.00531 3.07193 4.72509 3.07193 7.5610275l0 0c0 5.905533 -4.6957245 10.692917 -10.48819 10.692917l0 0c-5.792473 0 -10.488197 -4.787384 -10.488197 -10.692917z" fill-rule="nonzero"></path><path fill="#000000" fill-opacity="0.0" d="m57.55466 148.32726c7.809887 -18.224762 25.80267 -29.9747 45.62956 -29.797737c19.826881 0.1769638 37.60707 12.246193 45.09041 30.607475l-45.52922 18.555923z" fill-rule="nonzero"></path><path fill="#000000" fill-opacity="0.0" d="m57.55466 148.32726c7.809887 -18.224762 25.80267 -29.9747 45.62956 -29.797737c19.826881 0.1769638 37.60707 12.246193 45.09041 30.607475" fill-rule="nonzero"></path><path stroke="#000000" stroke-width="4.0" stroke-linejoin="round" stroke-linecap="butt" d="m57.55466 148.32726c7.809887 -18.224762 25.80267 -29.9747 45.62956 -29.797737c19.826881 0.1769638 37.60707 12.246193 45.09041 30.607475" fill-rule="nonzero"></path></g></svg>

